<svg id="Layer_1" data-name="Layer 1" xmlns="http://www.w3.org/2000/svg" viewBox="0 0 64 64"><path d="M51,20a.69.69,0,0,1-.41-.13.74.74,0,0,1-.21-1,5.41,5.41,0,0,0,1.14-4.2,3.43,3.43,0,0,0-1.5-2,.76.76,0,0,1-.38-.84c.55-2.28.35-3.88-.58-4.76-1.47-1.38-4.63-.82-5.73-.48a.75.75,0,0,1-.85-.32A2.41,2.41,0,0,0,40.76,4.9a4.37,4.37,0,0,0-3,1.41.75.75,0,0,1-1,.08,2.94,2.94,0,0,0-2.53-.72c-1.63.43-2.6,2.64-2.61,2.66a.75.75,0,1,1-1.38-.58c0-.12,1.25-2.9,3.59-3.53a4.09,4.09,0,0,1,3.31.62A5.47,5.47,0,0,1,40.91,3.4a3.67,3.67,0,0,1,2.55,1.53c1.31-.3,4.71-.86,6.66,1,1.27,1.2,1.65,3.11,1.12,5.7A4.85,4.85,0,0,1,53,14.26c.41,1.62,0,3.43-1.34,5.39A.77.77,0,0,1,51,20Z"/><path d="M55.27,32.81h0a.75.75,0,1,1,0-1.5h0s2.08,0,2.89-1.19c.47-.68.45-1.69-.06-3a.76.76,0,0,1,0-.59.73.73,0,0,1,.45-.39c.61-.2,2.27-.94,2.61-2a2.23,2.23,0,0,0-.62-2,.74.74,0,0,1-.07-.82s1.14-2.17.28-3.65C60,16.39,58,16.08,56.43,16a.72.72,0,0,1-.52-.23.78.78,0,0,1-.21-.54,2.89,2.89,0,0,0-.91-2.22c-.83-.56-2.2-.14-3.2.3A.75.75,0,0,1,51,12c2-.87,3.53-.93,4.66-.17a3.94,3.94,0,0,1,1.51,2.76c2.47.18,4.13,1,4.93,2.36,1,1.71.32,3.77,0,4.66a3.4,3.4,0,0,1,.59,3,5,5,0,0,1-2.87,2.74A4.23,4.23,0,0,1,59.39,31C58.15,32.77,55.48,32.81,55.27,32.81Z"/><path d="M47.4,29a.74.74,0,0,1-.5-.2.75.75,0,0,1,0-1.06l.23-.25a.27.27,0,0,1,.08-.07,8.21,8.21,0,0,0,3.38-6.3,7.6,7.6,0,0,0-3-5.8c-2.92-2.36-7.72-2.71-11.86,1.82L34,19.09a.76.76,0,0,1-1.06.05.75.75,0,0,1,0-1.06l1.75-1.94c4.8-5.26,10.44-4.78,13.91-2a9.1,9.1,0,0,1,3.52,7c0,1.91-.66,4.75-3.89,7.43l-.19.21A.77.77,0,0,1,47.4,29Z"/><path d="M15.81,60.61a4.28,4.28,0,0,1-3.08-1.31L2.44,48.56a4.24,4.24,0,0,1-.39-5.43L15.57,24.3h0L29.2,5.35A.74.74,0,0,1,29.83,5a.75.75,0,0,1,.61.35A28.9,28.9,0,0,1,34,23l4.52-4.33a4.17,4.17,0,1,1,5.73,6.07L42.8,26.08c8.7,2.2,12.7,5.22,12.92,5.38a.73.73,0,0,1,.29.61.72.72,0,0,1-.31.59L18.31,59.8A4.28,4.28,0,0,1,15.81,60.61Zm.77-35.15L3.27,44a2.76,2.76,0,0,0,.25,3.52L13.81,58.26a2.79,2.79,0,0,0,3.62.33L54,32.08c-2.26-1.38-9-4.91-21.13-6.24h0A97,97,0,0,0,16.58,25.46Zm18-.93c2.38.31,4.54.7,6.49,1.14l2.18-2a2.67,2.67,0,1,0-3.67-3.89Zm-11.87-.74a92.49,92.49,0,0,1,9.6.48A28.13,28.13,0,0,0,29.72,7.2l-12,16.7C19.39,23.83,21.06,23.79,22.69,23.79Z"/><path d="M33.41,19.34a.76.76,0,0,1-.75-.68c-.24-2.64.53-8,5.22-9.5a6.6,6.6,0,0,1,8.48,4,.75.75,0,0,1-1.41.51,5.14,5.14,0,0,0-6.62-3.05c-4.7,1.47-4.2,7.67-4.17,7.93a.77.77,0,0,1-.68.82Z"/><path d="M50.19,29.3a14.45,14.45,0,0,1-3-.31.76.76,0,0,1-.56-.9.74.74,0,0,1,.9-.56c.06,0,6,1.34,7-2a3.18,3.18,0,0,0-.19-2.66A5.88,5.88,0,0,0,51,20.75a.75.75,0,0,1-.58-.89.76.76,0,0,1,.9-.57,7.13,7.13,0,0,1,4.28,2.85A4.68,4.68,0,0,1,56,26C55.16,28.72,52.39,29.3,50.19,29.3Z"/><path d="M45.66,39.78a.86.86,0,0,1-.27-.05C30.41,34,9.59,35,9.38,35a.72.72,0,0,1-.78-.71.74.74,0,0,1,.71-.78c.21,0,21.34-1,36.61,4.82a.75.75,0,0,1,.44,1A.76.76,0,0,1,45.66,39.78Z"/></svg>